<svg xmlns="http://www.w3.org/2000/svg" width="84.667" height="96" viewBox="0 0 84.667 96">
  <g id="Group_64" data-name="Group 64" transform="translate(-164 -24)">
    <g id="LOGO" transform="translate(164 24)">
      <path id="Path_7" data-name="Path 7" d="M43.318,3.28C21.356,3.28,3.61,16.511,3.61,16.511S4.81,30.95,8.425,55.724,43.318,93.317,43.318,93.317,74.6,80.5,78.211,55.724s4.815-39.213,4.815-39.213S65.272,3.28,43.318,3.28Z" transform="translate(-0.902 -0.82)" fill="#fff"/>
      <path id="Path_8" data-name="Path 8" d="M42.333,0C18.924,0,0,14.109,0,14.109S1.283,29.5,5.13,55.917,42.333,96,42.333,96s33.355-13.666,37.2-40.083,5.13-41.808,5.13-41.808S65.743,0,42.333,0Zm32.7,54.957c-3.383,23.207-32.7,35.223-32.7,35.223S13.021,78.164,9.638,54.957,5.13,18.219,5.13,18.219s16.629-12.4,37.2-12.4,37.2,12.4,37.2,12.4S78.411,31.75,75.028,54.957Z" fill="#363333"/>
      <path id="Path_9" data-name="Path 9" d="M44.47,9.13C24.609,9.13,8.55,21.1,8.55,21.1s1.088,13.059,4.358,35.47S44.47,90.579,44.47,90.579s28.3-11.6,31.562-34.008,4.35-35.47,4.35-35.47S64.339,9.13,44.47,9.13Z" transform="translate(-2.137 -2.282)" fill="#363333"/>
      <g id="Group_13" data-name="Group 13" transform="translate(20.792 22.607)">
        <g id="Group_11" data-name="Group 11">
          <g id="Group_10" data-name="Group 10">
            <g id="Group_9" data-name="Group 9">
              <path id="Path_10" data-name="Path 10" d="M31.343,54.708A17.83,17.83,0,0,1,34.3,44.853l-2.6-2.6A21.535,21.535,0,0,0,46.966,76.13V72.485A17.928,17.928,0,0,1,31.343,54.708Z" transform="translate(-27.72 -33.167)" fill="#fff" fill-rule="evenodd"/>
              <path id="Path_11" data-name="Path 11" d="M72.176,44.85A17.914,17.914,0,0,1,59.5,72.475V76.12A21.544,21.544,0,0,0,74.779,42.24Z" transform="translate(-35.663 -33.164)" fill="#fff" fill-rule="evenodd"/>
              <path id="Path_12" data-name="Path 12" d="M39.635,38.346a17.907,17.907,0,0,1,23.927,0l2.565-2.565a21.532,21.532,0,0,0-29.057,0Z" transform="translate(-30.057 -30.14)" fill="#fff" fill-rule="evenodd"/>
            </g>
          </g>
        </g>
        <g id="Group_12" data-name="Group 12" transform="translate(11.768 13.681)">
          <path id="Path_13" data-name="Path 13" d="M59.3,56.706c0,.5-.36.84-1.1,1.028l-1.4.293a1.67,1.67,0,0,0-.533.968.925.925,0,0,0,.083.6h-.218a.621.621,0,0,1-.24-.585,1.616,1.616,0,0,1,.09-.375,1.535,1.535,0,0,0,.09-.375l.053-.2h-.8c-.053.2-.173.593-.36,1.155a17.112,17.112,0,0,1-2.273,4.335Q49.932,67.1,46.4,67.1a3.3,3.3,0,0,1-2.063-.638,2.237,2.237,0,0,1-.93-1.883,2.459,2.459,0,0,1,.48-1.523,1.619,1.619,0,0,1,1.373-.728c.818,0,1.223.375,1.223,1.133q0,.945-.81.945a.637.637,0,0,1-.705-.563,1.335,1.335,0,0,1,.105-.63.877.877,0,0,0-.158-.173c-.7.09-1.05.578-1.05,1.478a1.95,1.95,0,0,0,.81,1.665,2.969,2.969,0,0,0,1.808.533,4.762,4.762,0,0,0,2.235-.6A9.328,9.328,0,0,0,52.7,61.063c.33-.8.615-1.545.855-2.205V58.7c.03-.03.007-.038-.068-.038A4.533,4.533,0,0,0,51.278,60q-1.946,1.676-1.718,3.2a.61.61,0,0,1-.308-.623,3.8,3.8,0,0,1,1.515-2.663,9.91,9.91,0,0,1,2.888-1.823.5.5,0,0,0,.135-.09l.263-.743c.083-.248.233-.69.45-1.32A11.865,11.865,0,0,1,57.009,51.6a2.44,2.44,0,0,1,1.515-.93.317.317,0,0,1,.225.105.344.344,0,0,1-.053.105,3.309,3.309,0,0,0-1.965,2.363c-.233.653-.5,1.493-.8,2.535-.293,1.005-.443,1.545-.443,1.628v.218a.4.4,0,0,0,.225.038,2.126,2.126,0,0,0,.773-.09,5.176,5.176,0,0,0,.6-.428,3.006,3.006,0,0,1,1.718-.75C59.139,56.346,59.3,56.466,59.3,56.706Zm5.25-8.221c0,.263-.255.668-.773,1.208a3.277,3.277,0,0,1-1.2.93,5.032,5.032,0,0,1-1.223.24,20.565,20.565,0,0,1-4.178-.84c-.375-.083-1.02-.218-1.943-.413a11.274,11.274,0,0,0-2.3-.255c-2.8,0-4.725,1-5.8,2.978a6.579,6.579,0,0,0-.825,3.165,2.9,2.9,0,0,0,.465,1.68,1.736,1.736,0,0,0,1.5.743,3.108,3.108,0,0,0,2.513-1.373,5.525,5.525,0,0,0,1.1-2.753,1.271,1.271,0,0,1,.2.57,3.088,3.088,0,0,1-.255,1.1,5.136,5.136,0,0,1-1.358,1.98,3.3,3.3,0,0,1-2.2.878,2.528,2.528,0,0,1-2.078-.945,3.389,3.389,0,0,1-.72-2.22,5.733,5.733,0,0,1,3.128-5.108,10.256,10.256,0,0,1,5.378-1.5c-.248,0-.128.007.353.03s.855.03,1.125.03c.39.038,1.178.135,2.355.293q.236.022,1.98.36a9.613,9.613,0,0,0,1.7.2,3.545,3.545,0,0,0,2.97-1.08C64.532,48.38,64.554,48.41,64.554,48.485Z" transform="translate(-43.41 -48.38)" fill="#fff"/>
        </g>
      </g>
    </g>
  </g>
</svg>
