<svg xmlns="http://www.w3.org/2000/svg" width="25.001" height="25.002" viewBox="0 0 25.001 25.002">
  <g id="Group_67" data-name="Group 67" transform="translate(-1006.998 -34.998)">
    <path id="Shape_2_copy" data-name="Shape 2 copy" d="M1007,47.5A12.5,12.5,0,1,1,1019.5,60,12.515,12.515,0,0,1,1007,47.5Zm1,0A11.5,11.5,0,1,0,1019.5,36,11.516,11.516,0,0,0,1008,47.5Zm9.348,6.876V48h-1.318V44.8h1.318v-.82c0-2.229,1.129-3.357,3.357-3.357h2.26v3.2h-1.6a1.012,1.012,0,0,0-.355.04,1.409,1.409,0,0,0-.025.339v.6h2.047L1022.69,48h-1.712v6.378Z" fill="#fff"/>
  </g>
</svg>
