<svg xmlns="http://www.w3.org/2000/svg" width="25.002" height="25.002" viewBox="0 0 25.002 25.002">
  <g id="Group_68" data-name="Group 68" transform="translate(-1046.998 -34.998)">
    <path id="Shape_3_copy" data-name="Shape 3 copy" d="M1059.5,60A12.5,12.5,0,1,1,1072,47.5,12.515,12.515,0,0,1,1059.5,60Zm0-24A11.5,11.5,0,1,0,1071,47.5,11.517,11.517,0,0,0,1059.5,36Zm3.95,18.254h-7.9a3,3,0,0,1-2.993-2.993V43.743a3,3,0,0,1,2.993-2.993h7.9a3,3,0,0,1,2.993,2.993v7.514A3,3,0,0,1,1063.449,54.249Zm-9.9-7.562v4.569a2,2,0,0,0,2,2h7.9a2,2,0,0,0,2-2V46.688h-3.123a3.042,3.042,0,0,1,.25,1.213,3.073,3.073,0,1,1-6.147,0,3.04,3.04,0,0,1,.25-1.213Zm5.946-.863a2.077,2.077,0,1,0,2.076,2.076A2.079,2.079,0,0,0,1059.5,45.824Zm3.28-3.082a.5.5,0,0,0-.5.5v.846a.5.5,0,0,0,.5.5h.846a.5.5,0,0,0,.5-.5v-.846a.5.5,0,0,0-.5-.5Z" fill="#fff"/>
  </g>
</svg>
