<svg xmlns="http://www.w3.org/2000/svg" width="25.002" height="25.002" viewBox="0 0 25.002 25.002">
  <g id="Group_66" data-name="Group 66" transform="translate(-967.998 -34.998)">
    <path id="Shape_1_copy" data-name="Shape 1 copy" d="M968,47.5A12.5,12.5,0,1,1,980.5,60,12.515,12.515,0,0,1,968,47.5Zm1,0A11.5,11.5,0,1,0,980.5,36,11.515,11.515,0,0,0,969,47.5Zm5.979,4.257a.5.5,0,0,1,.327-.916,3.791,3.791,0,0,0,.477.028,3.991,3.991,0,0,0,1.527-.3A2.755,2.755,0,0,1,976,48.992a.5.5,0,0,1,.047-.4,2.744,2.744,0,0,1-.858-1.992v-.028a.5.5,0,0,1,.243-.43.125.125,0,0,1,.025-.012,2.753,2.753,0,0,1,.122-2.535.49.49,0,0,1,.393-.246.5.5,0,0,1,.424.181,5.9,5.9,0,0,0,3.7,2.11,2.752,2.752,0,0,1,4.545-2.041,4.065,4.065,0,0,0,1.026-.427.461.461,0,0,1,.237-.072h.019a.5.5,0,0,1,.5.5.47.47,0,0,1-.038.186,1.639,1.639,0,0,1-.081.212.5.5,0,0,1,.337.77,5.029,5.029,0,0,1-1.035,1.131v.047a6.9,6.9,0,0,1-10.623,5.817Z" fill="#fff"/>
  </g>
</svg>
